:SAMPLES-PER-SECOND 30
:FULLY-SPECIFIED
:DEGREES
79
root  7.26485 19.1312 0.357093 -20.297 74.1675 -59.0946
RightUpLeg  -27.159 12.8711 6.27948
RightLeg  96.7611 9.45088 12.5008
RightFoot  -36.0214 -0.0725315 -0.415599
RightToes  1.74622e-010 -3.18055e-015 8.94531e-016
Spine  56.4857 2.12577 12.6233
Spine1  -15.7777 9.80204 -24.3402
HEad  -65.2279 -9.42217 15.6518
LeftShoulder1  0 -2.69403e-036 -1.28585e-037
LeftArm  8.54067 -41.1352 -109.084
LeftForeArm  31.8472 -3.01639 -4.55597
LeftHand  -4.45392 -0.943115 50.7211
RightShoulder  -2.48481e-017 0 -8.08114e-019
RightArm  -16.4391 38.4715 57.0788
RightForeArm  9.89182 11.5128 -11.5277
RightHand  4.36202 -16.3607 -29.4975
LeftUpLeg  -64.4202 2.48209 12.7222
LeftLeg  127.23 0.343264 -18.7662
LeftFoot  14.1313 -0.723046 3.126
LeftToes  4.94765e-010 2.02697e-011 4.00889e-011
80
root  8.39713 18.9143 0.193177 -20.3934 73.0212 -58.0682
RightUpLeg  -22.5244 13.4291 6.06238
RightLeg  93.4389 10.1362 12.2484
RightFoot  -35.841 -0.0534289 -0.323579
RightToes  1.74622e-010 -3.18055e-015 8.94531e-016
Spine  56.0214 1.19238 13.6845
Spine1  -13.8517 9.97864 -25.7926
HEad  -65.1345 -9.70903 16.1853
LeftShoulder1  0 -2.69403e-036 -1.28585e-037
LeftArm  10.9565 -39.277 -107.066
LeftForeArm  29.1934 -4.04121 -5.07575
LeftHand  -4.67812 -1.02501 52.3336
RightShoulder  -2.48481e-017 0 -8.08114e-019
RightArm  -16.4073 44.3429 58.1984
RightForeArm  4.6884 6.64035 -9.78623
RightHand  3.63401 -15.2846 -25.8901
LeftUpLeg  -63.2519 2.01178 12.019
LeftLeg  126.745 0.827319 -19.657
LeftFoot  19.4145 -0.134325 0.658424
LeftToes  4.94765e-010 2.02697e-011 4.00889e-011
81
root  9.61126 18.7272 0.168638 -18.4222 73.0018 -56.0943
RightUpLeg  -18.8889 12.9724 5.38605
RightLeg  89.3485 10.9172 10.6202
RightFoot  -35.3695 0.23699 1.14759
RightToes  1.74622e-010 -3.18055e-015 8.94531e-016
Spine  54.8122 0.735399 13.4486
Spine1  -12.5067 9.6327 -26.4162
HEad  -65.488 -9.52609 17.5881
LeftShoulder1  0 -2.69403e-036 -1.28585e-037
LeftArm  12.8718 -36.4481 -104.532
LeftForeArm  26.7938 -5.18931 -5.37677
LeftHand  -4.93246 -1.11862 54.0867
RightShoulder  -2.48481e-017 0 -8.08114e-019
RightArm  -13.6139 47.8937 62.0755
RightForeArm  1.04597 2.77167 -7.55604
RightHand  3.42016 -15.0942 -24.1386
LeftUpLeg  -61.5576 1.30745 10.3328
LeftLeg  125.274 0.553186 -20.2713
LeftFoot  22.7938 0.25471 -0.56388
LeftToes  4.94765e-010 2.02697e-011 4.00889e-011
82
root  10.9067 18.5695 0.268618 -13.2196 74.5487 -52.4038
RightUpLeg  -16.744 10.6565 3.68009
RightLeg  84.6036 11.4827 8.05534
RightFoot  -33.9867 0.588612 3.13764
RightToes  1.74622e-010 -3.18055e-015 8.94531e-016
Spine  52.8151 0.344858 11.9087
Spine1  -12.4014 8.13238 -26.4083
HEad  -65.3044 -8.52654 18.7953
LeftShoulder1  0 -2.69403e-036 -1.28585e-037
LeftArm  9.84683 -32.1741 -101.163
LeftForeArm  28.4699 -5.19283 -5.30217
LeftHand  -5.11806 -1.18058 55.3596
RightShoulder  -2.48481e-017 0 -8.08114e-019
RightArm  -10.4217 48.1865 68.1567
RightForeArm  1.17373 0.216342 -5.1474
RightHand  4.08097 -16.3755 -26.6049
LeftUpLeg  -60.1128 0.167585 7.25662
LeftLeg  123.006 -1.30201 -19.2343
LeftFoot  25.0437 0.159322 -0.233772
LeftToes  4.94765e-010 2.02697e-011 4.00889e-011
83
root  12.2889 18.4843 0.473186 -3.35468 78.5355 -44.7388
RightUpLeg  -15.0338 5.59915 0.862312
RightLeg  79.4852 11.7686 6.01053
RightFoot  -32.0175 0.749917 4.44393
RightToes  1.74622e-010 -3.18055e-015 8.94531e-016
Spine  50.4582 -0.791963 8.90056
Spine1  -12.909 4.84032 -24.0073
HEad  -64.2391 -6.44361 18.4894
LeftShoulder1  0 -2.69403e-036 -1.28585e-037
LeftArm  6.80641 -26.148 -96.477
LeftForeArm  29.4963 -5.15426 -5.25305
LeftHand  -5.06971 -1.1627 55.0426
RightShoulder  -2.48481e-017 0 -8.08114e-019
RightArm  -8.46787 46.3875 75.1343
RightForeArm  3.83767 -0.455196 -3.602
RightHand  5.29943 -18.1338 -31.6593
LeftUpLeg  -58.7799 -2.57826 2.92039
LeftLeg  120.374 -4.27119 -16.2747
LeftFoot  23.909 -0.131316 0.608446
LeftToes  4.94765e-010 2.02697e-011 4.00889e-011
84
root  13.71 18.5093 0.731697 18.6041 83.6518 -24.7505
RightUpLeg  -13.0593 -0.451354 -1.81101
RightLeg  74.5773 12.0121 5.2164
RightFoot  -29.0106 0.680967 4.81203
RightToes  1.74622e-010 -3.18055e-015 8.94531e-016
Spine  48.7494 -2.58961 5.10327
Spine1  -13.3741 0.606395 -18.8166
HEad  -63.4908 -3.62878 16.7742
LeftShoulder1  0 -2.69403e-036 -1.28585e-037
LeftArm  7.82993 -18.7475 -91.3685
LeftForeArm  26.3023 -5.71663 -5.42664
LeftHand  -4.70513 -1.04642 52.4519
RightShoulder  -2.48481e-017 0 -8.08114e-019
RightArm  -7.52915 44.4798 81.7619
RightForeArm  7.4719 0.362674 -2.88641
RightHand  6.21908 -19.089 -35.6875
LeftUpLeg  -57.1064 -6.61327 -1.08127
LeftLeg  117.961 -6.28972 -14.0629
LeftFoot  18.3392 -0.126942 0.64395
LeftToes  4.94765e-010 2.02697e-011 4.00889e-011
85
root  15.0408 18.6691 0.949522 59.0852 86.1536 14.0626
RightUpLeg  -12.2497 -3.58823 -2.62599
RightLeg  71.1082 12.1569 4.8062
RightFoot  -23.1609 0.388781 4.34239
RightToes  1.74622e-010 -3.18055e-015 8.94531e-016
Spine  48.3572 -3.69555 2.2237
Spine1  -14.132 -2.26905 -13.7482
HEad  -64.1445 -1.53808 14.906
LeftShoulder1  0 -2.69403e-036 -1.28585e-037
LeftArm  8.46595 -11.4338 -87.9261
LeftForeArm  24.6686 -11.4837 -2.00933
LeftHand  -4.14878 -0.86959 48.1917
RightShoulder  -2.48481e-017 0 -8.08114e-019
RightArm  -7.28318 43.0319 86.4181
RightForeArm  11.0459 1.44124 -2.12614
RightHand  6.59615 -19.3342 -37.6298
LeftUpLeg  -55.3603 -9.50939 -3.03237
LeftLeg  116.026 -6.34088 -15.0033
LeftFoot  12.9781 0.127985 -0.378539
LeftToes  4.94765e-010 2.02697e-011 4.00889e-011
86
root  16.1796 18.9517 1.06701 62.0724 86.595 15.5071
RightUpLeg  -14.0319 -2.32564 -1.47743
RightLeg  70.6556 12.0197 4.28454
RightFoot  -14.9665 0.0597931 3.4257
RightToes  1.74622e-010 -3.18055e-015 8.94531e-016
Spine  48.8431 -3.55957 1.23535
Spine1  -15.257 -2.74903 -11.8317
HEad  -65.5372 -0.488763 13.5815
LeftShoulder1  0 -2.69403e-036 -1.28585e-037
LeftArm  19.0332 -5.73258 -86.9832
LeftForeArm  11.614 -19.5829 6.84517
LeftHand  -3.6499 -0.726443 43.9388
RightShoulder  -2.48481e-017 0 -8.08114e-019
RightArm  -7.29674 41.6157 89.2865
RightForeArm  13.8495 2.01574 -1.24711
RightHand  6.97465 -19.6886 -39.1058
LeftUpLeg  -53.7221 -9.57421 -2.86073
LeftLeg  113.932 -5.66271 -17.8101
LeftFoot  12.0456 0.285941 -1.10528
LeftToes  4.94765e-010 2.02697e-011 4.00889e-011
87
root  17.1738 19.2856 1.11453 30.5707 85.6807 -17.2209
RightUpLeg  -17.6954 0.716063 -0.152933
RightLeg  73.9195 11.7459 4.02352
RightFoot  -8.46773 -0.106772 2.69084
RightToes  1.74622e-010 -3.18055e-015 8.94531e-016
Spine  49.3508 -2.77196 1.14732
Spine1  -16.0279 -1.94694 -12.107
HEad  -66.2628 0.562993 12.2758
LeftShoulder1  0 -2.69403e-036 -1.28585e-037
LeftArm  27.9117 -2.97278 -86.3457
LeftForeArm  -2.18776 -24.3879 18.1475
LeftHand  -3.36795 -0.67164 41.2297
RightShoulder  -2.48481e-017 0 -8.08114e-019
RightArm  -6.48564 40.008 92.0761
RightForeArm  15.6411 2.15148 -0.635609
RightHand  7.57474 -20.3238 -41.0068
LeftUpLeg  -51.5314 -7.72371 -1.91623
LeftLeg  111.328 -5.65836 -20.0247
LeftFoot  13.2281 0.34342 -1.28189
LeftToes  4.94765e-010 2.02697e-011 4.00889e-011
88
root  18.1347 19.5985 1.14019 15.1771 83.9439 -33.0638
RightUpLeg  -21.7626 2.61135 0.296757
RightLeg  80.2061 11.4065 4.05081
RightFoot  -6.32498 -0.109116 1.87029
RightToes  1.74622e-010 -3.18055e-015 8.94531e-016
Spine  49.377 -2.19941 1.51426
Spine1  -15.7065 -1.07506 -12.749
HEad  -66.1122 1.51038 11.0594
LeftShoulder1  0 -2.69403e-036 -1.28585e-037
LeftArm  20.4856 -5.05012 -84.8623
LeftForeArm  2.55568 -29.8645 21.3428
LeftHand  -3.27794 -0.64153 40.4157
RightShoulder  -2.48481e-017 0 -8.08114e-019
RightArm  -5.67993 38.4684 94.3499
RightForeArm  16.7946 1.86891 -0.121356
RightHand  8.08934 -20.8165 -42.6478
LeftUpLeg  -48.2286 -6.08425 -1.11954
LeftLeg  108.53 -6.33876 -21.075
LeftFoot  12.4481 0.428373 -1.70266
LeftToes  4.94765e-010 2.02697e-011 4.00889e-011
89
root  19.105 19.8392 1.15264 7.57312 82.987 -40.5795
RightUpLeg  -25.969 3.23418 0.430241
RightLeg  87.9858 11.0008 4.20897
RightFoot  -7.11227 -0.037236 0.752654
RightToes  1.74622e-010 -3.18055e-015 8.94531e-016
Spine  49.2359 -2.35168 2.60973
Spine1  -15.158 -0.625437 -12.8991
HEad  -65.3905 2.20695 10.0595
LeftShoulder1  0 -2.69403e-036 -1.28585e-037
LeftArm  16.542 -11.1822 -83.0688
LeftForeArm  5.28766 -34.0218 23.3791
LeftHand  -3.20901 -0.574511 40.0408
RightShoulder  -2.48481e-017 0 -8.08114e-019
RightArm  -5.32952 36.7212 96.4196
RightForeArm  18.1387 0.931356 0.212223
RightHand  8.38319 -21.0483 -43.6867
LeftUpLeg  -44.5466 -5.55271 -0.264156
LeftLeg  105.856 -7.09141 -21.999
LeftFoot  9.80835 0.557927 -2.5729
LeftToes  4.94765e-010 2.02697e-011 4.00889e-011
90
root  20.0036 19.9432 1.17365 1.42218 82.5381 -46.842
RightUpLeg  -31.2722 3.96747 0.725216
RightLeg  96.4132 10.4861 4.63061
RightFoot  -8.76065 0.0241126 -0.557838
RightToes  1.74622e-010 -3.18055e-015 8.94531e-016
Spine  49.0031 -2.58627 3.83413
Spine1  -15.3289 -0.312153 -12.8053
HEad  -64.6113 2.68247 9.07747
LeftShoulder1  0 -2.69403e-036 -1.28585e-037
LeftArm  14.5925 -20.0378 -81.2014
LeftForeArm  5.74065 -35.3104 24.0342
LeftHand  -2.97679 -0.394972 38.4478
RightShoulder  -2.48481e-017 0 -8.08114e-019
RightArm  -5.54418 34.4587 98.077
RightForeArm  19.9798 -0.0959086 0.372567
RightHand  8.64726 -21.2425 -44.6303
LeftUpLeg  -41.8066 -5.56693 0.713723
LeftLeg  103.184 -7.95186 -22.766
LeftFoot  7.51542 0.606905 -3.16537
LeftToes  4.94765e-010 2.02697e-011 4.00889e-011
91
root  20.8662 19.9367 1.22461 -4.51129 82.5526 -53.1898
RightUpLeg  -37.7666 4.90452 1.20202
RightLeg  104.744 9.65646 5.68822
RightFoot  -11.363 0.0342416 -1.98423
RightToes  1.74622e-010 -3.18055e-015 8.94531e-016
Spine  48.7289 -2.37773 4.36932
Spine1  -15.881 0.0305705 -11.7456
HEad  -64.1844 3.32282 7.79427
LeftShoulder1  0 -2.69403e-036 -1.28585e-037
LeftArm  13.3422 -30.3256 -79.6257
LeftForeArm  4.38845 -32.9554 22.8245
LeftHand  -2.68083 -0.164951 36.2811
RightShoulder  -2.48481e-017 0 -8.08114e-019
RightArm  -5.9682 32.1169 98.8328
RightForeArm  22.063 -0.190785 0.631628
RightHand  8.96594 -21.488 -45.6884
LeftUpLeg  -40.144 -5.81521 1.80368
LeftLeg  99.8817 -9.29787 -22.3623
LeftFoot  5.9658 0.8272 -4.74085
LeftToes  4.94765e-010 2.02697e-011 4.00889e-011
